<mxfile host="app.diagrams.net" modified="2023-03-30T14:50:12.257Z" agent="Mozilla/5.0 (Windows NT 10.0; Win64; x64) AppleWebKit/537.36 (KHTML, like Gecko) Chrome/111.0.0.0 Safari/537.36" etag="lL2J7HtiPBJbmC1TPQwH" version="21.1.2" type="github">
  <diagram name="PÃ¡gina-1" id="XNRzsAeIM8oSN_OPEkbb">
    <mxGraphModel dx="1122" dy="725" grid="1" gridSize="10" guides="1" tooltips="1" connect="1" arrows="1" fold="1" page="1" pageScale="1" pageWidth="827" pageHeight="1169" math="0" shadow="0">
      <root>
        <mxCell id="0" />
        <mxCell id="1" parent="0" />
        <mxCell id="vs9Lxk-kmgWGQHqngDHr-4" style="edgeStyle=orthogonalEdgeStyle;rounded=0;orthogonalLoop=1;jettySize=auto;html=1;exitX=0.5;exitY=1;exitDx=0;exitDy=0;entryX=0.5;entryY=0;entryDx=0;entryDy=0;entryPerimeter=0;" edge="1" parent="1" source="vs9Lxk-kmgWGQHqngDHr-1" target="vs9Lxk-kmgWGQHqngDHr-3">
          <mxGeometry relative="1" as="geometry" />
        </mxCell>
        <mxCell id="vs9Lxk-kmgWGQHqngDHr-1" value="Inicio" style="ellipse;whiteSpace=wrap;html=1;" vertex="1" parent="1">
          <mxGeometry x="350" y="10" width="120" height="80" as="geometry" />
        </mxCell>
        <mxCell id="vs9Lxk-kmgWGQHqngDHr-2" value="Fim" style="strokeWidth=2;html=1;shape=mxgraph.flowchart.terminator;whiteSpace=wrap;" vertex="1" parent="1">
          <mxGeometry x="356" y="640" width="116" height="70" as="geometry" />
        </mxCell>
        <mxCell id="vs9Lxk-kmgWGQHqngDHr-7" style="edgeStyle=orthogonalEdgeStyle;rounded=0;orthogonalLoop=1;jettySize=auto;html=1;exitX=0.5;exitY=1;exitDx=0;exitDy=0;exitPerimeter=0;entryX=0.483;entryY=0.2;entryDx=0;entryDy=0;entryPerimeter=0;" edge="1" parent="1" source="vs9Lxk-kmgWGQHqngDHr-3" target="vs9Lxk-kmgWGQHqngDHr-5">
          <mxGeometry relative="1" as="geometry" />
        </mxCell>
        <mxCell id="vs9Lxk-kmgWGQHqngDHr-3" value="Digite seu email" style="strokeWidth=2;html=1;shape=mxgraph.flowchart.display;whiteSpace=wrap;" vertex="1" parent="1">
          <mxGeometry x="352" y="130" width="116" height="70" as="geometry" />
        </mxCell>
        <mxCell id="vs9Lxk-kmgWGQHqngDHr-10" style="edgeStyle=orthogonalEdgeStyle;rounded=0;orthogonalLoop=1;jettySize=auto;html=1;entryX=0.5;entryY=0;entryDx=0;entryDy=0;entryPerimeter=0;" edge="1" parent="1" source="vs9Lxk-kmgWGQHqngDHr-5" target="vs9Lxk-kmgWGQHqngDHr-9">
          <mxGeometry relative="1" as="geometry" />
        </mxCell>
        <mxCell id="vs9Lxk-kmgWGQHqngDHr-5" value="email" style="html=1;strokeWidth=2;shape=manualInput;whiteSpace=wrap;rounded=1;size=26;arcSize=11;" vertex="1" parent="1">
          <mxGeometry x="354" y="230" width="116" height="70" as="geometry" />
        </mxCell>
        <mxCell id="vs9Lxk-kmgWGQHqngDHr-13" style="edgeStyle=orthogonalEdgeStyle;rounded=0;orthogonalLoop=1;jettySize=auto;html=1;entryX=0.487;entryY=0.16;entryDx=0;entryDy=0;entryPerimeter=0;" edge="1" parent="1" source="vs9Lxk-kmgWGQHqngDHr-9" target="vs9Lxk-kmgWGQHqngDHr-11">
          <mxGeometry relative="1" as="geometry" />
        </mxCell>
        <mxCell id="vs9Lxk-kmgWGQHqngDHr-9" value="Digite sua senha" style="strokeWidth=2;html=1;shape=mxgraph.flowchart.display;whiteSpace=wrap;" vertex="1" parent="1">
          <mxGeometry x="354" y="350" width="116" height="70" as="geometry" />
        </mxCell>
        <mxCell id="vs9Lxk-kmgWGQHqngDHr-11" value="senha" style="html=1;strokeWidth=2;shape=manualInput;whiteSpace=wrap;rounded=1;size=26;arcSize=11;" vertex="1" parent="1">
          <mxGeometry x="356" y="450" width="116" height="70" as="geometry" />
        </mxCell>
      </root>
    </mxGraphModel>
  </diagram>
</mxfile>
